<svg width="142" height="32" viewBox="0 0 142 32" fill="none" xmlns="http://www.w3.org/2000/svg">
<rect x="4.40741" y="6.30368" width="47.1852" height="19.3927" rx="9.69633" stroke="#0177FB" stroke-width="8.81483"/>
<path d="M67.848 25V7.24H75.24C78.816 7.24 80.976 9.112 80.976 12.16C80.976 14.056 80.112 15.448 78.504 16.144C80.256 16.72 81.192 18.088 81.192 20.104C81.192 23.248 79.08 25 75.24 25H67.848ZM74.832 10.648H71.736V14.512H74.832C76.224 14.512 76.992 13.816 76.992 12.544C76.992 11.296 76.248 10.648 74.832 10.648ZM75.024 17.776H71.736V21.592H75.024C76.464 21.592 77.208 20.944 77.208 19.624C77.208 18.424 76.44 17.776 75.024 17.776ZM91.6089 13V16.48H90.4329C88.3209 16.48 87.0489 17.416 87.0489 19.792V25H83.3529V13.024H86.8329L87.0249 14.8C87.5289 13.624 88.5849 12.832 90.1929 12.832C90.6249 12.832 91.1049 12.88 91.6089 13ZM96.6332 25.312C94.0892 25.312 92.5052 23.824 92.5052 21.472C92.5052 19.264 94.0652 17.896 96.9452 17.68L100.305 17.416V17.224C100.305 16.048 99.5852 15.424 98.2652 15.424C96.7052 15.424 95.8652 16.024 95.8652 17.104H92.7932C92.7932 14.392 95.0252 12.616 98.4572 12.616C101.937 12.616 103.905 14.56 103.905 17.992V25H100.641L100.401 23.416C100.017 24.52 98.4332 25.312 96.6332 25.312ZM97.9292 22.576C99.3452 22.576 100.329 21.88 100.329 20.512V19.864L98.4572 20.032C96.8492 20.176 96.2732 20.536 96.2732 21.304C96.2732 22.168 96.8012 22.576 97.9292 22.576ZM109.495 25L104.815 13H108.799L110.263 17.2C110.863 18.952 111.343 20.464 111.439 21.016C111.583 20.32 112.111 18.76 112.711 17.2L114.319 13H118.159L113.143 25H109.495ZM124.64 25.312C121.016 25.312 118.424 22.672 118.424 18.976C118.424 15.232 120.944 12.616 124.568 12.616C128.336 12.616 130.688 15.088 130.688 19V19.936L121.976 19.984C122.192 21.568 123.08 22.312 124.712 22.312C126.104 22.312 127.088 21.808 127.352 20.944H130.736C130.304 23.608 127.928 25.312 124.64 25.312ZM124.592 15.616C123.128 15.616 122.312 16.264 122.024 17.704H127.016C127.016 16.432 126.08 15.616 124.592 15.616ZM141.132 13V16.48H139.956C137.844 16.48 136.572 17.416 136.572 19.792V25H132.876V13.024H136.356L136.548 14.8C137.052 13.624 138.108 12.832 139.716 12.832C140.148 12.832 140.628 12.88 141.132 13Z" fill="#0177FB"/>
</svg>
