<svg width="20" height="18" viewBox="0 0 20 18" fill="none" xmlns="http://www.w3.org/2000/svg">
<path d="M0.833313 10.8333C0.833313 9.82081 1.65412 9 2.66665 9C3.67917 9 4.49998 9.82081 4.49998 10.8333V14.5C4.49998 15.5125 3.67917 16.3333 2.66665 16.3333C1.65412 16.3333 0.833313 15.5125 0.833313 14.5V10.8333Z" stroke="#5F6D7E" stroke-width="1.67"/>
<path d="M8.16665 3.5C8.16665 2.48748 8.98746 1.66666 9.99998 1.66666C11.0125 1.66666 11.8333 2.48748 11.8333 3.5V14.5C11.8333 15.5125 11.0125 16.3333 9.99998 16.3333C8.98746 16.3333 8.16665 15.5125 8.16665 14.5V3.5Z" stroke="#5F6D7E" stroke-width="1.67"/>
<path d="M15.5 7.16666C15.5 6.15414 16.3208 5.33333 17.3333 5.33333C18.3458 5.33333 19.1666 6.15414 19.1666 7.16666V14.5C19.1666 15.5125 18.3458 16.3333 17.3333 16.3333C16.3208 16.3333 15.5 15.5125 15.5 14.5V7.16666Z" stroke="#5F6D7E" stroke-width="1.67"/>
</svg>
