<svg width="22" height="22" viewBox="0 0 22 22" fill="none" xmlns="http://www.w3.org/2000/svg">
<path d="M3.41923 20.5838L3.79831 19.8398L3.41923 20.5838ZM1.41624 18.5808L2.16023 18.2017L1.41624 18.5808ZM16.9171 18.5808L16.1731 18.2017L16.9171 18.5808ZM14.9141 20.5838L14.5351 19.8398L14.9141 20.5838ZM14.9141 5.08289L14.5351 5.82688L14.9141 5.08289ZM16.9171 7.08588L16.1731 7.46496L16.9171 7.08588ZM3.41923 5.08289L3.79831 5.82688L3.41923 5.08289ZM1.41624 7.08588L2.16023 7.46496L1.41624 7.08588ZM17.4167 16.5817C16.9555 16.5817 16.5817 16.9555 16.5817 17.4167C16.5817 17.8778 16.9555 18.2517 17.4167 18.2517V16.5817ZM3.74835 4.58333C3.74835 5.04449 4.1222 5.41833 4.58335 5.41833C5.04451 5.41833 5.41835 5.04449 5.41835 4.58333H3.74835ZM4.92262 14.9802C4.58949 15.299 4.57795 15.8276 4.89684 16.1607C5.21573 16.4939 5.74429 16.5054 6.07742 16.1865L4.92262 14.9802ZM12.256 16.1865C12.5891 16.5054 13.1177 16.4939 13.4365 16.1607C13.7554 15.8276 13.7439 15.299 13.4108 14.9802L12.256 16.1865ZM8.25002 5.41833H10.0834V3.74833H8.25002V5.41833ZM16.5817 11.9167V13.75H18.2517V11.9167H16.5817ZM10.0834 20.2483H8.25002V21.9183H10.0834V20.2483ZM1.75169 13.75V11.9167H0.081687V13.75H1.75169ZM8.25002 20.2483C6.95279 20.2483 6.03008 20.2477 5.30769 20.1887C4.59505 20.1304 4.1512 20.0196 3.79831 19.8398L3.04015 21.3278C3.66769 21.6475 4.35578 21.7865 5.1717 21.8531C5.97787 21.919 6.98035 21.9183 8.25002 21.9183V20.2483ZM0.081687 13.75C0.081687 15.0197 0.0810376 16.0222 0.146904 16.8283C0.213567 17.6442 0.3525 18.3323 0.67225 18.9599L2.16023 18.2017C1.98043 17.8488 1.86958 17.405 1.81136 16.6923C1.75234 15.9699 1.75169 15.0472 1.75169 13.75H0.081687ZM3.79831 19.8398C3.09302 19.4804 2.5196 18.907 2.16023 18.2017L0.67225 18.9599C1.19172 19.9794 2.02062 20.8083 3.04015 21.3278L3.79831 19.8398ZM16.5817 13.75C16.5817 15.0472 16.581 15.9699 16.522 16.6923C16.4638 17.405 16.3529 17.8488 16.1731 18.2017L17.6611 18.9599C17.9809 18.3323 18.1198 17.6442 18.1865 16.8283C18.2523 16.0222 18.2517 15.0197 18.2517 13.75H16.5817ZM10.0834 21.9183C11.353 21.9183 12.3555 21.919 13.1617 21.8531C13.9776 21.7865 14.6657 21.6475 15.2932 21.3278L14.5351 19.8398C14.1822 20.0196 13.7383 20.1304 13.0257 20.1887C12.3033 20.2477 11.3806 20.2483 10.0834 20.2483V21.9183ZM16.1731 18.2017C15.8138 18.907 15.2404 19.4804 14.5351 19.8398L15.2932 21.3278C16.3128 20.8083 17.1417 19.9794 17.6611 18.9599L16.1731 18.2017ZM10.0834 5.41833C11.3806 5.41833 12.3033 5.41898 13.0257 5.47801C13.7383 5.53623 14.1822 5.64708 14.5351 5.82688L15.2932 4.3389C14.6657 4.01915 13.9776 3.88022 13.1617 3.81355C12.3555 3.74769 11.353 3.74833 10.0834 3.74833V5.41833ZM18.2517 11.9167C18.2517 10.647 18.2523 9.64452 18.1865 8.83835C18.1198 8.02243 17.9809 7.33434 17.6611 6.7068L16.1731 7.46496C16.3529 7.81784 16.4638 8.2617 16.522 8.97434C16.581 9.69673 16.5817 10.6194 16.5817 11.9167H18.2517ZM14.5351 5.82688C15.2404 6.18624 15.8138 6.75967 16.1731 7.46496L17.6611 6.7068C17.1417 5.68727 16.3128 4.85837 15.2932 4.3389L14.5351 5.82688ZM8.25002 3.74833C6.98035 3.74833 5.97787 3.74769 5.1717 3.81355C4.35578 3.88022 3.66769 4.01915 3.04015 4.3389L3.79831 5.82688C4.1512 5.64708 4.59505 5.53623 5.30769 5.47801C6.03008 5.41898 6.95279 5.41833 8.25002 5.41833V3.74833ZM1.75169 11.9167C1.75169 10.6194 1.75234 9.69673 1.81136 8.97434C1.86958 8.2617 1.98043 7.81784 2.16023 7.46496L0.67225 6.7068C0.3525 7.33434 0.213567 8.02243 0.146904 8.83835C0.0810376 9.64452 0.081687 10.647 0.081687 11.9167H1.75169ZM3.04015 4.3389C2.02062 4.85837 1.19172 5.68727 0.67225 6.7068L2.16023 7.46496C2.5196 6.75967 3.09302 6.18624 3.79831 5.82688L3.04015 4.3389ZM8.25002 1.75167H16.5V0.081668H8.25002V1.75167ZM20.2484 5.5V13.75H21.9184V5.5H20.2484ZM20.2484 13.75C20.2484 15.3139 18.9806 16.5817 17.4167 16.5817V18.2517C19.9029 18.2517 21.9184 16.2362 21.9184 13.75H20.2484ZM16.5 1.75167C18.5702 1.75167 20.2484 3.42985 20.2484 5.5H21.9184C21.9184 2.50754 19.4925 0.081668 16.5 0.081668V1.75167ZM8.25002 0.081668C5.76382 0.081668 3.74835 2.09713 3.74835 4.58333H5.41835C5.41835 3.01945 6.68613 1.75167 8.25002 1.75167V0.081668ZM6.07742 16.1865C7.77958 14.5571 10.5538 14.5571 12.256 16.1865L13.4108 14.9802C11.0628 12.7326 7.27055 12.7326 4.92262 14.9802L6.07742 16.1865ZM10.7911 11.4922C10.7911 12.2813 10.112 12.9826 9.19677 12.9826V14.6526C10.9649 14.6526 12.4611 13.2716 12.4611 11.4922H10.7911ZM9.19677 12.9826C8.28149 12.9826 7.60244 12.2813 7.60244 11.4922H5.93244C5.93244 13.2716 7.42868 14.6526 9.19677 14.6526V12.9826ZM7.60244 11.4922C7.60244 10.703 8.28149 10.0017 9.19677 10.0017V8.33167C7.42868 8.33167 5.93244 9.71266 5.93244 11.4922H7.60244ZM9.19677 10.0017C10.112 10.0017 10.7911 10.703 10.7911 11.4922H12.4611C12.4611 9.71266 10.9649 8.33167 9.19677 8.33167V10.0017Z" fill="#5F6D7E"/>
</svg>
