<svg width="22" height="22" viewBox="0 0 22 22" fill="none" xmlns="http://www.w3.org/2000/svg">
<path d="M8.25002 0.916672L13.75 0.916672C16.3169 0.916672 17.6004 0.916672 18.5808 1.41622C19.4432 1.85564 20.1444 2.55681 20.5838 3.41921C21.0834 4.39964 21.0834 5.6831 21.0834 8.25V13.75C21.0834 16.3169 21.0834 17.6004 20.5838 18.5808C20.1444 19.4432 19.4432 20.1444 18.5808 20.5838C17.6004 21.0833 16.3169 21.0833 13.75 21.0833H8.25002M8.25002 0.916672C5.68311 0.916672 4.39966 0.916672 3.41923 1.41623C2.55682 1.85565 1.85566 2.55681 1.41624 3.41922C0.916687 4.39964 0.916687 5.6831 0.916687 8.25001L0.916687 13.75C0.916687 16.3169 0.916687 17.6004 1.41624 18.5808C1.85566 19.4432 2.55682 20.1444 3.41923 20.5838C4.39966 21.0833 5.68311 21.0833 8.25002 21.0833M8.25002 0.916672L8.25002 21.0833M8.25002 11L22 11" stroke="#5F6D7E" stroke-width="1.67" stroke-linecap="round"/>
</svg>
